<?xml version="1.0" standalone="no"?>
<!DOCTYPE svg PUBLIC "-//W3C//DTD SVG 20010904//EN"
 "http://www.w3.org/TR/2001/REC-SVG-20010904/DTD/svg10.dtd">
<svg version="1.0" xmlns="http://www.w3.org/2000/svg"
 width="264.000000pt" height="155.000000pt" viewBox="0 0 264.000000 155.000000"
 preserveAspectRatio="xMidYMid meet">

<g transform="translate(0.000000,155.000000) scale(0.100000,-0.100000)"
fill="#000000" stroke="none">
<path d="M747 1143 c-3 -5 -8 -23 -12 -41 -3 -18 -14 -36 -23 -41 -9 -5 -109
-28 -222 -51 -113 -24 -212 -49 -220 -57 -12 -11 -11 -13 12 -13 14 0 102 16
194 35 93 20 181 38 196 41 14 3 29 1 32 -4 3 -5 -15 -99 -39 -208 -56 -247
-128 -665 -116 -677 17 -17 28 22 55 183 26 155 83 446 122 624 13 55 24 82
38 91 12 7 118 24 240 37 163 17 221 27 224 37 6 17 -103 12 -321 -14 -71 -8
-133 -13 -137 -10 -5 3 -6 21 -3 40 3 22 2 35 -5 35 -6 0 -13 -3 -15 -7z"/>
<path d="M1392 673 c-16 -6 -67 -80 -109 -158 -29 -54 -32 -56 -27 -25 3 19
15 66 26 103 11 38 17 71 15 73 -5 6 -47 -127 -47 -148 0 -14 -40 -58 -52 -58
-4 0 -9 14 -13 30 -8 38 -17 38 -49 -2 -30 -38 -32 -35 -10 17 8 20 13 40 10
43 -3 2 -9 -4 -12 -14 -8 -23 -64 -84 -77 -84 -5 0 -7 18 -5 40 2 22 1 40 -1
40 -3 0 -23 -17 -44 -37 l-39 -38 7 35 7 35 -25 -23 c-22 -21 -27 -22 -46 -10
-19 11 -23 11 -31 -2 -5 -8 -16 -24 -24 -35 -15 -18 -15 -17 -1 17 22 55 19
60 -19 22 -44 -44 -58 -44 -44 -1 22 71 22 74 3 49 -9 -13 -23 -21 -30 -18
-19 7 -57 -38 -53 -65 l3 -22 33 27 c18 16 30 21 26 12 -10 -27 6 -39 32 -22
32 22 33 21 27 -24 -3 -22 -3 -40 1 -40 3 0 17 23 31 51 21 41 29 48 40 39 8
-6 23 -9 35 -5 14 5 20 2 20 -9 0 -23 14 -20 50 10 l31 27 -7 -27 c-8 -33 16
-45 49 -23 23 15 23 14 20 -17 l-4 -31 18 22 c10 12 27 34 37 49 l20 28 9 -27
c9 -29 40 -37 54 -14 5 8 9 2 13 -18 5 -28 9 -25 53 60 51 99 101 165 123 165
8 0 14 -2 14 -4 0 -21 -28 -65 -66 -106 -49 -53 -50 -57 -10 -39 20 9 29 9 41
-1 13 -11 8 -20 -45 -67 -56 -51 -73 -84 -50 -98 17 -10 48 13 81 61 39 57 43
103 11 119 -20 11 -21 13 -7 25 20 17 55 83 55 105 0 15 -22 19 -48 8z m-642
-171 c0 -5 -9 -17 -20 -27 -22 -20 -26 -14 -10 16 11 19 30 26 30 11z m624
-74 c-32 -45 -59 -66 -70 -55 -4 4 14 30 41 57 27 27 51 47 54 45 2 -3 -9 -24
-25 -47z"/>
<path d="M1530 541 c-6 -12 -16 -21 -23 -20 -28 3 -37 -3 -53 -32 -22 -43 -4
-57 27 -22 21 25 22 26 2 9 -26 -22 -31 -10 -8 20 13 16 16 17 25 4 5 -8 10
-23 10 -32 0 -23 28 -23 52 -1 19 17 19 16 13 -10 -10 -38 17 -46 56 -18 l30
22 -6 -38 c-6 -38 -6 -38 12 -17 10 12 26 36 35 52 15 28 18 30 42 19 14 -7
26 -18 26 -24 0 -19 11 -16 42 14 27 26 28 26 28 5 0 -24 11 -27 41 -12 15 8
19 7 19 -5 0 -25 30 -17 76 21 24 19 44 32 44 29 0 -26 -37 -126 -56 -151 -30
-39 -56 -102 -48 -115 11 -18 32 10 60 81 18 46 41 82 70 111 39 39 44 41 44
21 0 -39 28 -38 71 4 21 21 37 39 35 41 -2 2 -19 -12 -39 -32 -19 -19 -40 -35
-47 -35 -12 0 -11 5 6 68 5 18 -5 12 -46 -28 -29 -28 -54 -49 -56 -47 -2 2 3
23 11 47 20 58 19 73 -4 65 -11 -3 -22 -1 -26 5 -12 20 -39 9 -89 -37 -39 -38
-51 -44 -54 -31 -2 9 2 26 7 37 18 32 13 46 -7 28 -10 -10 -21 -14 -25 -11 -3
4 -20 -6 -38 -20 -29 -25 -33 -26 -49 -11 -16 15 -19 14 -39 -11 -11 -15 -21
-31 -21 -37 0 -6 -3 -8 -6 -5 -3 3 2 23 10 43 9 21 16 39 16 42 0 2 -22 -19
-48 -48 -53 -57 -77 -60 -61 -6 14 49 11 51 -22 18 -27 -28 -49 -39 -49 -26 0
2 7 23 16 45 18 44 13 66 -6 31z m460 -20 c0 -20 -66 -79 -76 -68 -10 9 6 46
29 67 27 25 47 25 47 1z m-160 -14 c0 -2 -12 -14 -27 -28 -24 -22 -24 -13 0
19 8 11 27 17 27 9z m116 -224 c-8 -15 -15 -25 -16 -21 0 12 23 58 27 54 3 -2
-2 -17 -11 -33z"/>
<path d="M2288 443 c-148 -5 -120 -23 36 -23 74 0 141 3 150 6 33 13 14 24
-36 22 -29 -1 -97 -4 -150 -5z"/>
</g>
</svg>
